<svg width="22" height="20" viewBox="0 0 22 20" fill="none" xmlns="http://www.w3.org/2000/svg">
<path d="M10.2164 0.85958C10.5162 -0.0606967 11.8181 -0.0606959 12.118 0.859581L13.8691 6.23398C14.0032 6.64561 14.387 6.92418 14.8199 6.92418H20.4806C21.45 6.92418 21.8524 8.16521 21.0674 8.73398L16.4925 12.0486C16.141 12.3033 15.994 12.7555 16.1284 13.1682L17.877 18.5349C18.177 19.4557 17.1237 20.2227 16.3395 19.6544L11.7539 16.3321C11.4039 16.0784 10.9305 16.0784 10.5805 16.3321L5.99492 19.6544C5.21067 20.2227 4.15738 19.4557 4.4574 18.5348L6.20597 13.1682C6.34043 12.7555 6.19335 12.3033 5.84189 12.0486L1.26701 8.73398C0.482006 8.16521 0.884337 6.92418 1.85373 6.92418H7.51449C7.94741 6.92418 8.33117 6.64561 8.46529 6.23398L10.2164 0.85958Z" fill="#070707"/>
</svg>
